<svg width="65" height="42" viewBox="0 0 65 42" fill="none" xmlns="http://www.w3.org/2000/svg">
<g opacity="0.55">
<path d="M11.8503 23.4211C11.9684 23.3625 12.1622 23.2898 12.2802 23.2605C12.3983 23.2312 12.6242 23.2211 12.7818 23.2374C12.9395 23.2538 13.1584 23.3135 13.2691 23.3698C13.3797 23.4267 13.5379 23.545 13.621 23.6329C13.7042 23.7207 13.8137 23.8751 13.8647 23.9759C13.9151 24.0767 14.024 24.4693 14.1054 24.849C14.1874 25.2286 14.3445 25.8431 14.4551 26.2149C14.5652 26.5866 14.7475 27.1313 14.8592 27.4259C14.9716 27.7205 15.2089 28.2776 15.3872 28.6651C15.5655 29.0521 15.8744 29.648 16.0739 29.9888C16.2734 30.3296 16.5916 30.8365 16.7813 31.1153C16.971 31.3942 17.335 31.887 17.5907 32.2109C17.8464 32.5342 18.3909 33.1403 18.8008 33.5565C19.2107 33.9728 19.8682 34.5783 20.2626 34.9022C20.6564 35.2255 21.276 35.6868 21.6383 35.9273C22.0006 36.1679 22.5297 36.4979 22.8135 36.6619C23.0972 36.8252 23.5484 37.0668 23.8166 37.1992C24.0849 37.331 24.5876 37.5586 24.9344 37.7039C25.2812 37.8498 25.8488 38.065 26.1956 38.1827C26.5424 38.3004 27.2388 38.4992 27.7433 38.6237C28.2477 38.7488 29.009 38.9025 29.4343 38.9656C29.8597 39.0293 30.6083 39.1104 31.0967 39.1459C31.623 39.1842 32.3596 39.1954 32.9024 39.1735C33.4069 39.1526 34.116 39.0991 34.4788 39.0541C34.8417 39.0084 35.4092 38.9217 35.7399 38.8609C36.0707 38.8 36.664 38.6631 37.0584 38.5573C37.4522 38.4508 38.1103 38.2458 38.5201 38.1004C38.93 37.9557 39.6391 37.66 40.0965 37.4437C40.554 37.2274 41.2241 36.8776 41.587 36.6664C41.9498 36.4551 42.5557 36.0608 42.9341 35.7905C43.3124 35.5195 43.8404 35.1174 44.1069 34.8966C44.374 34.6758 44.8997 34.1908 45.2752 33.819C45.6512 33.4473 46.2181 32.826 46.5351 32.439C46.8521 32.0515 47.3233 31.4178 47.5813 31.0308C47.8398 30.6433 48.2159 30.0226 48.4176 29.6508C48.6189 29.2791 48.9049 28.7085 49.0534 28.3835C49.2013 28.0585 49.4283 27.5008 49.5572 27.1443C49.6862 26.7877 49.8674 26.2301 49.9585 25.9051C50.0502 25.5801 50.1786 25.0602 50.2434 24.7504C50.3082 24.4406 50.4182 24.075 50.4882 23.9376C50.5581 23.8001 50.706 23.6165 50.8161 23.5292C50.9261 23.4419 51.1325 23.3321 51.2747 23.2853C51.4982 23.2115 52.3277 23.2003 57.4799 23.2008C61.9191 23.2014 63.4961 23.2183 63.6996 23.269C63.8904 23.3163 64.0515 23.4132 64.239 23.5929C64.4465 23.7917 64.5279 23.9252 64.6035 24.1871C64.67 24.4158 64.6895 24.6163 64.6655 24.8067C64.6442 24.9717 64.5531 25.2156 64.4442 25.3959C64.2974 25.6381 64.192 25.7367 63.6279 26.0211L52.8797 26.0177L52.8195 26.2571C52.7863 26.3889 52.6808 26.7629 52.5851 27.088C52.4893 27.413 52.2813 28.0219 52.1225 28.4398C51.9637 28.8577 51.6845 29.5168 51.5022 29.9043C51.3199 30.2913 50.9984 30.9126 50.788 31.2843C50.577 31.6561 50.1821 32.2898 49.9098 32.6925C49.6381 33.0952 49.1583 33.7413 48.8441 34.1288C48.53 34.5158 47.9361 35.1714 47.524 35.5854C47.1118 35.9994 46.5036 36.5683 46.1729 36.85C45.8421 37.1311 45.2872 37.5687 44.9404 37.8216C44.5936 38.0745 44.0261 38.4587 43.6793 38.675C43.3325 38.8907 42.7845 39.2112 42.4611 39.3864C42.1378 39.5616 41.6477 39.8094 41.372 39.9367C41.0963 40.064 40.5351 40.3017 40.1252 40.4645C39.7153 40.6273 39.0836 40.8548 38.7208 40.9697C38.3579 41.0852 37.7652 41.2542 37.4023 41.346C37.0395 41.4378 36.4078 41.573 35.9979 41.6474C35.588 41.7217 34.8789 41.827 34.4215 41.8822C33.8185 41.9549 33.1736 41.9825 32.0712 41.9825C31.2223 41.9831 30.2741 41.9521 29.9216 41.9127C29.5748 41.8732 28.9173 41.778 28.4598 41.7003C28.0024 41.6226 27.3191 41.4823 26.9408 41.3883C26.5624 41.2942 26.0081 41.1398 25.7083 41.0463C25.4085 40.9523 24.9058 40.7788 24.5905 40.6616C24.2752 40.5439 23.6951 40.3034 23.3007 40.1277C22.9069 39.9519 22.3004 39.6545 21.9536 39.4664C21.6068 39.2788 20.9877 38.9099 20.5778 38.6474C20.168 38.3843 19.5357 37.9467 19.1734 37.6752C18.8111 37.4031 18.2304 36.9294 17.8836 36.6224C17.5368 36.3149 17.0106 35.8119 16.7142 35.5043C16.4179 35.1973 15.9432 34.6667 15.66 34.326C15.3763 33.9852 14.9699 33.4659 14.7561 33.1713C14.5428 32.8767 14.1564 32.2937 13.8979 31.8757C13.6394 31.4578 13.2272 30.7098 12.9819 30.2141C12.736 29.7184 12.3926 28.9456 12.2183 28.4961C12.0441 28.0466 11.7982 27.3245 11.672 26.8908C11.5459 26.4571 11.3768 25.811 11.296 25.4545C11.2157 25.0985 11.1498 24.6929 11.1504 24.5532C11.1504 24.4135 11.2031 24.186 11.2673 24.0463C11.3321 23.9066 11.441 23.7331 11.5098 23.6605C11.5792 23.5878 11.7322 23.4802 11.8503 23.4211Z" fill="url(#paint0_linear_1_32)"/>
<path d="M30.4536 0.092413C30.8004 0.0591972 31.1873 0.0226036 31.3134 0.0102181C31.4395 -0.00216747 32.1618 -0.00329343 32.9185 0.00684019C33.6763 0.0175368 34.629 0.06539 35.0394 0.113806C35.4493 0.162222 36.0684 0.253988 36.4152 0.317604C36.762 0.381221 37.4069 0.523655 37.8483 0.634562C38.2896 0.744905 39.0245 0.962215 39.482 1.11703C39.9394 1.27185 40.6353 1.53645 41.0297 1.70478C41.4235 1.87311 42.0426 2.16474 42.4054 2.35334C42.7683 2.54193 43.3358 2.86171 43.6665 3.06438C43.9973 3.26649 44.5396 3.62229 44.8703 3.85424C45.2011 4.08562 45.7434 4.49153 46.0741 4.75557C46.4049 5.0196 47.0773 5.62931 47.568 6.11066C48.0586 6.592 48.7007 7.27771 48.9947 7.63351C49.2888 7.98932 49.7044 8.52133 49.9182 8.81577C50.1315 9.10964 50.5178 9.69233 50.7763 10.1106C51.0349 10.5289 51.447 11.276 51.6924 11.7714C51.9383 12.2668 52.2816 13.0392 52.4559 13.4885C52.6302 13.9378 52.8761 14.6595 53.0022 15.093C53.1283 15.5265 53.2974 16.1728 53.3782 16.5286C53.4585 16.8844 53.525 17.2897 53.525 17.4293C53.525 17.5746 53.4688 17.8026 53.3931 17.9642C53.3209 18.119 53.173 18.3138 53.0641 18.3971C52.9558 18.4804 52.7637 18.5919 52.6376 18.6448C52.5058 18.7006 52.2621 18.7416 52.0644 18.7416C51.8678 18.7416 51.6224 18.7006 51.4912 18.6454C51.365 18.5925 51.1885 18.481 51.0991 18.3977C51.0096 18.3138 50.887 18.1505 50.8268 18.0345C50.7666 17.9186 50.6502 17.5132 50.5688 17.1338C50.4869 16.7543 50.3298 16.1401 50.2192 15.7686C50.1091 15.397 49.9268 14.8526 49.815 14.5582C49.7027 14.2637 49.4654 13.7064 49.2871 13.3196C49.1088 12.9323 48.7998 12.3372 48.6003 11.9966C48.4009 11.656 48.0827 11.1493 47.893 10.8706C47.7032 10.592 47.3392 10.0988 47.0836 9.77509C46.8279 9.45137 46.2576 8.82196 45.8162 8.37552C45.3748 7.92964 44.7597 7.35878 44.449 7.10657C44.1383 6.85435 43.6482 6.48279 43.3599 6.28011C43.0715 6.078 42.6158 5.77625 42.3481 5.61017C42.0804 5.44409 41.4997 5.12375 41.0583 4.89856C40.617 4.67281 39.9337 4.35923 39.5393 4.20103C39.1455 4.04284 38.5132 3.81539 38.1349 3.69548C37.7565 3.57556 37.1759 3.41286 36.8451 3.33348C36.5143 3.2541 35.9468 3.13925 35.584 3.07845C35.2211 3.01765 34.641 2.93546 34.2942 2.89548C33.9451 2.85495 33.0755 2.82399 32.3452 2.82511C31.6201 2.8268 30.7688 2.85889 30.4536 2.89661C30.1383 2.93489 29.584 3.01653 29.2211 3.07902C28.8583 3.14094 28.2655 3.26536 27.9027 3.356C27.5404 3.44608 26.9465 3.61891 26.5843 3.73939C26.222 3.85987 25.6929 4.05297 25.4091 4.16838C25.1254 4.28435 24.5711 4.53938 24.1767 4.73586C23.7829 4.93234 23.138 5.29152 22.7436 5.5336C22.3492 5.77568 21.7393 6.18891 21.3879 6.45182C21.036 6.71473 20.4427 7.20058 20.0695 7.53161C19.6957 7.86265 19.1529 8.39466 18.8628 8.71387C18.5722 9.03308 18.1904 9.47164 18.0139 9.68839C17.8373 9.90513 17.4917 10.3741 17.2452 10.7299C16.9993 11.0857 16.629 11.6689 16.4232 12.0247C16.2168 12.3806 15.9073 12.9762 15.7341 13.3477C15.561 13.7193 15.3283 14.2637 15.2171 14.5582C15.1053 14.8526 14.9242 15.3846 14.8141 15.7404C14.704 16.0962 14.5464 16.7042 14.4633 17.0916C14.3802 17.4783 14.2552 17.9073 14.1858 18.0441C14.1159 18.1804 13.9692 18.3622 13.8585 18.4478C13.7479 18.5333 13.5421 18.6437 13.3999 18.6932C13.1701 18.7732 12.4914 18.7827 7.19472 18.7816C3.38674 18.7811 1.15974 18.7602 1.00382 18.7236C0.869113 18.6921 0.647846 18.5728 0.508551 18.4562C0.370402 18.3402 0.211044 18.1573 0.155441 18.0486C0.0992639 17.94 0.035062 17.7249 0.0132793 17.5701C-0.0148091 17.3753 0.00124141 17.189 0.0654433 16.9649C0.120473 16.7735 0.234546 16.5579 0.344607 16.4368C0.447215 16.3248 0.634089 16.179 0.760199 16.1131C0.988345 15.9943 1.01013 15.9937 11.7949 15.9656L11.8557 15.7263C11.8889 15.5946 12.0219 15.1453 12.1514 14.727C12.2804 14.3088 12.5401 13.587 12.7281 13.1226C12.9167 12.6581 13.2349 11.9549 13.4361 11.5603C13.6367 11.1656 14.0047 10.507 14.2535 10.0965C14.5023 9.68614 14.9339 9.04209 15.2136 8.66545C15.4928 8.28826 15.9663 7.69657 16.2661 7.34977C16.5659 7.00298 17.1592 6.38652 17.5845 5.98004C18.0104 5.57357 18.6966 4.97513 19.1093 4.64973C19.5221 4.32432 20.1538 3.86662 20.5132 3.6313C20.8732 3.39654 21.3994 3.07057 21.6831 2.90674C21.9669 2.74292 22.5602 2.43159 23.0016 2.21484C23.443 1.9981 24.1394 1.68789 24.5493 1.52576C24.9592 1.36306 25.5914 1.13618 25.9537 1.02077C26.316 0.905917 26.9609 0.725764 27.3868 0.620487C27.8121 0.51521 28.5344 0.366584 28.9918 0.290581C29.4493 0.214579 30.1068 0.125066 30.4536 0.092413Z" fill="url(#paint1_linear_1_32)"/>
<path fill-rule="evenodd" clip-rule="evenodd" d="M32.7772 9.94369C33.0562 9.93976 33.5873 9.9617 33.9571 9.99265C34.3269 10.023 34.9183 10.1013 35.2714 10.166C35.6244 10.2307 36.2362 10.3832 36.6305 10.5053C37.0248 10.628 37.6162 10.8491 37.9448 10.9971C38.2733 11.1457 38.771 11.4006 39.05 11.5643C39.329 11.7275 39.7866 12.0291 40.0656 12.234C40.3446 12.4388 40.8297 12.8473 41.1421 13.1422C41.4551 13.4371 41.9259 13.9469 42.1876 14.2761C42.4498 14.6053 42.8322 15.15 43.0377 15.4859C43.2432 15.8224 43.558 16.4397 43.7378 16.8573C43.9171 17.2754 44.1435 17.9084 44.2409 18.2641C44.3376 18.6203 44.4595 19.1959 44.5115 19.5442C44.5664 19.9139 44.6053 20.5577 44.6047 21.0917C44.6041 21.597 44.5634 22.2706 44.5145 22.597C44.4649 22.9217 44.3436 23.4793 44.2444 23.835C44.1447 24.1912 43.9672 24.71 43.8489 24.9885C43.7307 25.2671 43.5401 25.6723 43.4248 25.8889C43.3095 26.1055 43.0902 26.473 42.9379 26.7048C42.7856 26.9372 42.4893 27.3424 42.279 27.6052C42.0693 27.868 41.5328 28.4256 41.0859 28.8432C40.6391 29.2607 40.0255 29.7672 39.7221 29.9686C39.4186 30.1701 38.9353 30.4621 38.6473 30.618C38.3594 30.7739 37.8952 30.9989 37.6162 31.1177C37.3372 31.2364 36.8396 31.4165 36.511 31.5183C36.1824 31.6202 35.6448 31.7552 35.3162 31.8183C34.9876 31.8819 34.4099 31.9629 34.0318 31.9989C33.6309 32.0372 33.0084 32.0501 32.5382 32.0299C32.095 32.0113 31.4766 31.9567 31.1642 31.9089C30.8518 31.8616 30.2878 31.7451 29.9096 31.65C29.5315 31.5555 28.9807 31.3884 28.685 31.2786C28.3892 31.1683 27.8922 30.959 27.5798 30.8121C27.2673 30.6653 26.6896 30.3417 26.2953 30.0924C25.901 29.8431 25.3365 29.4391 25.0408 29.1937C24.7451 28.949 24.2928 28.523 24.0359 28.2473C23.7791 27.9715 23.371 27.4673 23.1285 27.1269C22.8865 26.7864 22.5263 26.1916 22.328 25.8045C22.1302 25.4179 21.8751 24.8349 21.7622 24.5102C21.6487 24.1855 21.5011 23.6662 21.4342 23.3567C21.3673 23.0472 21.2843 22.579 21.2502 22.3156C21.2156 22.0523 21.1875 21.4637 21.1875 21.0073C21.1875 20.5509 21.2269 19.8926 21.2753 19.5442C21.3231 19.1959 21.4456 18.6073 21.5465 18.2359C21.6475 17.8645 21.865 17.2444 22.0298 16.8573C22.1947 16.4707 22.4958 15.8787 22.6995 15.5422C22.9027 15.2057 23.2838 14.6615 23.5467 14.3323C23.8089 14.0031 24.294 13.4809 24.6238 13.1715C24.9536 12.862 25.4781 12.4292 25.7893 12.2092C26.1006 11.9897 26.5833 11.6808 26.8629 11.5232C27.1425 11.3651 27.6395 11.1175 27.9681 10.9729C28.2966 10.8277 28.8743 10.6139 29.2525 10.498C29.6307 10.3821 30.2352 10.2318 30.5967 10.1648C30.9581 10.0979 31.4826 10.0225 31.7616 9.99715C32.0406 9.97183 32.4982 9.9482 32.7772 9.94369ZM30.7759 13.0263C30.513 13.0932 30.0829 13.2238 29.82 13.3178C29.5572 13.4112 29.087 13.6143 28.7746 13.7696C28.4621 13.9244 27.9944 14.195 27.7339 14.3712C27.474 14.5467 27.0289 14.9058 26.7458 15.1691C26.462 15.4325 26.0976 15.8123 25.9351 16.0132C25.7732 16.2141 25.4984 16.6068 25.3239 16.8854C25.1501 17.1639 24.904 17.6451 24.7767 17.9546C24.6495 18.2641 24.4906 18.7452 24.4225 19.0237C24.355 19.3023 24.2713 19.7451 24.2367 20.0085C24.2026 20.2718 24.1745 20.7147 24.1745 20.9932C24.1745 21.2718 24.202 21.7147 24.2355 21.978C24.2695 22.2414 24.3663 22.7225 24.4511 23.0472C24.5366 23.3719 24.6967 23.853 24.8078 24.1163C24.9189 24.3797 25.1513 24.8225 25.3251 25.1011C25.4984 25.3796 25.7738 25.7719 25.9363 25.9733C26.0994 26.1748 26.4345 26.5298 26.6819 26.7622C26.9292 26.9952 27.3737 27.3565 27.6694 27.5652C27.9651 27.7734 28.5159 28.0925 28.8941 28.2737C29.2722 28.4543 29.8834 28.6946 30.2532 28.8072C30.623 28.9197 31.1738 29.0548 31.4778 29.1071C31.8462 29.1705 32.3491 29.2022 32.9863 29.2022C33.644 29.2028 34.11 29.1724 34.4798 29.106C34.7755 29.0525 35.2863 28.9287 35.6149 28.8308C35.9435 28.7329 36.4949 28.5168 36.8396 28.3508C37.1843 28.1848 37.6795 27.9051 37.9394 27.729C38.1993 27.5523 38.6264 27.2186 38.8893 26.9862C39.1515 26.7544 39.5345 26.3616 39.7394 26.114C39.9449 25.8664 40.24 25.4612 40.3953 25.2136C40.5507 24.966 40.7448 24.6239 40.8261 24.454C40.9073 24.284 41.0525 23.9295 41.1487 23.6662C41.2449 23.4028 41.3775 22.9476 41.4438 22.6533C41.5155 22.3381 41.5788 21.7839 41.5991 21.3027C41.6254 20.6837 41.6093 20.3309 41.5316 19.8397C41.4755 19.484 41.3625 18.9776 41.2813 18.7142C41.1994 18.4509 41.0519 18.0463 40.9533 17.8139C40.8547 17.582 40.6439 17.1769 40.4849 16.9135C40.326 16.6502 40.0094 16.2073 39.7824 15.9288C39.5548 15.6502 39.1288 15.2107 38.8361 14.9519C38.5428 14.6936 38.0481 14.3216 37.7357 14.1253C37.4232 13.9294 36.9393 13.6678 36.6603 13.544C36.3814 13.4202 35.8975 13.2401 35.585 13.1444C35.2726 13.0482 34.7887 12.9312 34.5097 12.8839C34.2307 12.8372 33.6387 12.7882 33.1954 12.7759C32.7025 12.7618 32.1678 12.7826 31.8214 12.8293C31.5089 12.871 31.0387 12.9599 30.7759 13.0263Z" fill="url(#paint2_linear_1_32)"/>
<path fill-rule="evenodd" clip-rule="evenodd" d="M32.7772 9.94369C33.0562 9.93976 33.5873 9.9617 33.9571 9.99265C34.3269 10.023 34.9183 10.1013 35.2714 10.166C35.6244 10.2307 36.2362 10.3832 36.6305 10.5053C37.0248 10.628 37.6162 10.8491 37.9448 10.9971C38.2733 11.1457 38.771 11.4006 39.05 11.5643C39.329 11.7275 39.7866 12.0291 40.0656 12.234C40.3446 12.4388 40.8297 12.8473 41.1421 13.1422C41.4551 13.4371 41.9259 13.9469 42.1876 14.2761C42.4498 14.6053 42.8322 15.15 43.0377 15.4859C43.2432 15.8224 43.558 16.4397 43.7378 16.8573C43.9171 17.2754 44.1435 17.9084 44.2409 18.2641C44.3376 18.6203 44.4595 19.1959 44.5115 19.5442C44.5664 19.9139 44.6053 20.5577 44.6047 21.0917C44.6041 21.597 44.5634 22.2706 44.5145 22.597C44.4649 22.9217 44.3436 23.4793 44.2444 23.835C44.1447 24.1912 43.9672 24.71 43.8489 24.9885C43.7307 25.2671 43.5401 25.6723 43.4248 25.8889C43.3095 26.1055 43.0902 26.473 42.9379 26.7048C42.7856 26.9372 42.4893 27.3424 42.279 27.6052C42.0693 27.868 41.5328 28.4256 41.0859 28.8432C40.6391 29.2607 40.0255 29.7672 39.7221 29.9686C39.4186 30.1701 38.9353 30.4621 38.6473 30.618C38.3594 30.7739 37.8952 30.9989 37.6162 31.1177C37.3372 31.2364 36.8396 31.4165 36.511 31.5183C36.1824 31.6202 35.6448 31.7552 35.3162 31.8183C34.9876 31.8819 34.4099 31.9629 34.0318 31.9989C33.6309 32.0372 33.0084 32.0501 32.5382 32.0299C32.095 32.0113 31.4766 31.9567 31.1642 31.9089C30.8518 31.8616 30.2878 31.7451 29.9096 31.65C29.5315 31.5555 28.9807 31.3884 28.685 31.2786C28.3892 31.1683 27.8922 30.959 27.5798 30.8121C27.2673 30.6653 26.6896 30.3417 26.2953 30.0924C25.901 29.8431 25.3365 29.4391 25.0408 29.1937C24.7451 28.949 24.2928 28.523 24.0359 28.2473C23.7791 27.9715 23.371 27.4673 23.1285 27.1269C22.8865 26.7864 22.5263 26.1916 22.328 25.8045C22.1302 25.4179 21.8751 24.8349 21.7622 24.5102C21.6487 24.1855 21.5011 23.6662 21.4342 23.3567C21.3673 23.0472 21.2843 22.579 21.2502 22.3156C21.2156 22.0523 21.1875 21.4637 21.1875 21.0073C21.1875 20.5509 21.2269 19.8926 21.2753 19.5442C21.3231 19.1959 21.4456 18.6073 21.5465 18.2359C21.6475 17.8645 21.865 17.2444 22.0298 16.8573C22.1947 16.4707 22.4958 15.8787 22.6995 15.5422C22.9027 15.2057 23.2838 14.6615 23.5467 14.3323C23.8089 14.0031 24.294 13.4809 24.6238 13.1715C24.9536 12.862 25.4781 12.4292 25.7893 12.2092C26.1006 11.9897 26.5833 11.6808 26.8629 11.5232C27.1425 11.3651 27.6395 11.1175 27.9681 10.9729C28.2966 10.8277 28.8743 10.6139 29.2525 10.498C29.6307 10.3821 30.2352 10.2318 30.5967 10.1648C30.9581 10.0979 31.4826 10.0225 31.7616 9.99715C32.0406 9.97183 32.4982 9.9482 32.7772 9.94369ZM30.7759 13.0263C30.513 13.0932 30.0829 13.2238 29.82 13.3178C29.5572 13.4112 29.087 13.6143 28.7746 13.7696C28.4621 13.9244 27.9944 14.195 27.7339 14.3712C27.474 14.5467 27.0289 14.9058 26.7458 15.1691C26.462 15.4325 26.0976 15.8123 25.9351 16.0132C25.7732 16.2141 25.4984 16.6068 25.3239 16.8854C25.1501 17.1639 24.904 17.6451 24.7767 17.9546C24.6495 18.2641 24.4906 18.7452 24.4225 19.0237C24.355 19.3023 24.2713 19.7451 24.2367 20.0085C24.2026 20.2718 24.1745 20.7147 24.1745 20.9932C24.1745 21.2718 24.202 21.7147 24.2355 21.978C24.2695 22.2414 24.3663 22.7225 24.4511 23.0472C24.5366 23.3719 24.6967 23.853 24.8078 24.1163C24.9189 24.3797 25.1513 24.8225 25.3251 25.1011C25.4984 25.3796 25.7738 25.7719 25.9363 25.9733C26.0994 26.1748 26.4345 26.5298 26.6819 26.7622C26.9292 26.9952 27.3737 27.3565 27.6694 27.5652C27.9651 27.7734 28.5159 28.0925 28.8941 28.2737C29.2722 28.4543 29.8834 28.6946 30.2532 28.8072C30.623 28.9197 31.1738 29.0548 31.4778 29.1071C31.8462 29.1705 32.3491 29.2022 32.9863 29.2022C33.644 29.2028 34.11 29.1724 34.4798 29.106C34.7755 29.0525 35.2863 28.9287 35.6149 28.8308C35.9435 28.7329 36.4949 28.5168 36.8396 28.3508C37.1843 28.1848 37.6795 27.9051 37.9394 27.729C38.1993 27.5523 38.6264 27.2186 38.8893 26.9862C39.1515 26.7544 39.5345 26.3616 39.7394 26.114C39.9449 25.8664 40.24 25.4612 40.3953 25.2136C40.5507 24.966 40.7448 24.6239 40.8261 24.454C40.9073 24.284 41.0525 23.9295 41.1487 23.6662C41.2449 23.4028 41.3775 22.9476 41.4438 22.6533C41.5155 22.3381 41.5788 21.7839 41.5991 21.3027C41.6254 20.6837 41.6093 20.3309 41.5316 19.8397C41.4755 19.484 41.3625 18.9776 41.2813 18.7142C41.1994 18.4509 41.0519 18.0463 40.9533 17.8139C40.8547 17.582 40.6439 17.1769 40.4849 16.9135C40.326 16.6502 40.0094 16.2073 39.7824 15.9288C39.5548 15.6502 39.1288 15.2107 38.8361 14.9519C38.5428 14.6936 38.0481 14.3216 37.7357 14.1253C37.4232 13.9294 36.9393 13.6678 36.6603 13.544C36.3814 13.4202 35.8975 13.2401 35.585 13.1444C35.2726 13.0482 34.7887 12.9312 34.5097 12.8839C34.2307 12.8372 33.6387 12.7882 33.1954 12.7759C32.7025 12.7618 32.1678 12.7826 31.8214 12.8293C31.5089 12.871 31.0387 12.9599 30.7759 13.0263Z" fill="url(#paint3_linear_1_32)"/>
<path d="M33.809 20.788C33.7932 19.0367 33.7968 18.9732 33.9151 18.8616C33.9824 18.7986 34.1055 18.7465 34.1891 18.7465C34.2722 18.7465 34.3953 18.798 34.462 18.861C34.5784 18.9709 34.5832 19.0516 34.5832 20.7789C34.5832 22.3057 34.5693 22.5954 34.4923 22.6681C34.442 22.7157 34.3401 22.7695 34.2649 22.7878C34.1776 22.8095 34.0733 22.7809 33.8253 22.5989L33.809 20.788Z" fill="url(#paint4_linear_1_32)"/>
<path d="M26.7617 20.7789C26.7617 18.4219 26.7654 18.3423 26.883 18.2312C26.9497 18.1682 27.0655 18.1156 27.1407 18.1144C27.2159 18.1127 27.345 18.162 27.5802 18.3354V23.2223L27.4287 23.334C27.345 23.3958 27.2159 23.445 27.1407 23.4433C27.0655 23.4422 26.9497 23.3895 26.883 23.3265C26.7654 23.2155 26.7617 23.1359 26.7617 20.7789Z" fill="url(#paint5_linear_1_32)"/>
<path d="M31.4358 18.1688L31.582 18.028C31.662 17.9507 31.7839 17.8877 31.8518 17.8877C31.9203 17.8877 32.044 17.9524 32.2792 18.174L32.2816 20.7646C32.2841 23.1719 32.2768 23.3643 32.1755 23.4817C32.1161 23.5509 31.9918 23.6219 31.9003 23.6391C31.7754 23.662 31.6953 23.634 31.4304 23.3838L31.4358 18.1688Z" fill="url(#paint6_linear_1_32)"/>
<path d="M38.4576 20.7772C38.4522 18.2564 38.4619 17.9576 38.5516 17.8431C38.6183 17.7583 38.7163 17.7156 38.8457 17.7148C38.9524 17.7143 39.0942 17.7509 39.1609 17.7961C39.2792 17.8763 39.2828 17.9536 39.2998 20.6455C39.3089 22.1672 39.3022 23.4702 39.2846 23.5412C39.2664 23.6122 39.2088 23.7089 39.1567 23.7559C39.1039 23.8034 38.9675 23.8418 38.8535 23.8418C38.7056 23.8418 38.6195 23.8046 38.554 23.713C38.4758 23.603 38.4619 23.1777 38.4576 20.7772Z" fill="url(#paint7_linear_1_32)"/>
<path d="M29.053 17.2162L29.1846 17.065C29.2723 16.9647 29.3756 16.9145 29.4944 16.9145C29.592 16.9145 29.7266 16.966 29.7933 17.029C29.9122 17.1412 29.9146 17.2196 29.9146 20.7789C29.9146 24.3381 29.9122 24.4166 29.7933 24.5288C29.726 24.5923 29.5914 24.6433 29.4902 24.6433C29.3622 24.6433 29.2719 24.5969 29.1852 24.4858C29.0639 24.3318 29.0615 24.2557 29.053 17.2162Z" fill="url(#paint8_linear_1_32)"/>
<path d="M36.1688 16.7857C36.207 16.7147 36.2682 16.6379 36.3052 16.615C36.3416 16.5916 36.4604 16.5721 36.5689 16.5721C36.7066 16.571 36.7939 16.6099 36.8575 16.6998C36.937 16.8114 36.9491 17.3536 36.9491 20.7789C36.9491 24.2042 36.937 24.7463 36.8575 24.858C36.7939 24.9478 36.7066 24.9868 36.5689 24.9856C36.4604 24.9856 36.3416 24.9662 36.3052 24.9427C36.2682 24.9198 36.207 24.8431 36.1688 24.7721C36.1184 24.6788 36.099 23.5778 36.099 20.7789C36.099 17.9799 36.1184 16.879 36.1688 16.7857Z" fill="url(#paint9_linear_1_32)"/>
</g>
<defs>
<linearGradient id="paint0_linear_1_32" x1="85.6197" y1="57.8443" x2="-17.6853" y2="20.4065" gradientUnits="userSpaceOnUse">
<stop stop-color="#A59FC3"/>
<stop offset="0.131658" stop-color="#542B81"/>
<stop offset="0.475312" stop-color="#DC379F"/>
<stop offset="0.743612" stop-color="#F3A199"/>
<stop offset="0.938609" stop-color="#FAF6E8"/>
</linearGradient>
<linearGradient id="paint1_linear_1_32" x1="74.4693" y1="34.6435" x2="-28.8357" y2="-2.79435" gradientUnits="userSpaceOnUse">
<stop stop-color="#A59FC3"/>
<stop offset="0.0822842" stop-color="#542B81"/>
<stop offset="0.475312" stop-color="#DC379F"/>
<stop offset="0.709457" stop-color="#F3A199"/>
<stop offset="0.92" stop-color="#FAF6E8"/>
</linearGradient>
<linearGradient id="paint2_linear_1_32" x1="45.954" y1="30.6359" x2="27.8902" y2="36.0146" gradientUnits="userSpaceOnUse">
<stop offset="0.685096" stop-color="#DC379F"/>
</linearGradient>
<linearGradient id="paint3_linear_1_32" x1="45.954" y1="30.6359" x2="27.8902" y2="36.0146" gradientUnits="userSpaceOnUse">
<stop offset="0.685096" stop-color="#DC379F"/>
</linearGradient>
<linearGradient id="paint4_linear_1_32" x1="23.8275" y1="15.8854" x2="43.1169" y2="31.7707" gradientUnits="userSpaceOnUse">
<stop stop-color="#CD369B"/>
<stop offset="1" stop-color="#BF3498"/>
</linearGradient>
<linearGradient id="paint5_linear_1_32" x1="23.8275" y1="15.8854" x2="43.1169" y2="31.7707" gradientUnits="userSpaceOnUse">
<stop stop-color="#CD369B"/>
<stop offset="1" stop-color="#BF3498"/>
</linearGradient>
<linearGradient id="paint6_linear_1_32" x1="23.8275" y1="15.8854" x2="43.1169" y2="31.7707" gradientUnits="userSpaceOnUse">
<stop stop-color="#CD369B"/>
<stop offset="1" stop-color="#BF3498"/>
</linearGradient>
<linearGradient id="paint7_linear_1_32" x1="23.8275" y1="15.8854" x2="43.1169" y2="31.7707" gradientUnits="userSpaceOnUse">
<stop stop-color="#CD369B"/>
<stop offset="1" stop-color="#BF3498"/>
</linearGradient>
<linearGradient id="paint8_linear_1_32" x1="23.8275" y1="15.8854" x2="43.1169" y2="31.7707" gradientUnits="userSpaceOnUse">
<stop stop-color="#CD369B"/>
<stop offset="1" stop-color="#BF3498"/>
</linearGradient>
<linearGradient id="paint9_linear_1_32" x1="23.8275" y1="15.8854" x2="43.1169" y2="31.7707" gradientUnits="userSpaceOnUse">
<stop stop-color="#CD369B"/>
<stop offset="1" stop-color="#BF3498"/>
</linearGradient>
</defs>
</svg>
