<svg width="30" height="30" viewBox="0 0 30 30" fill="none" xmlns="http://www.w3.org/2000/svg">
<path d="M12.5 8.75L11.855 10.4925C11.01 12.7775 10.5875 13.92 9.75375 14.7538C8.92 15.5875 7.7775 16.01 5.4925 16.855L3.75 17.5L5.4925 18.145C7.7775 18.99 8.92 19.4138 9.75375 20.2463C10.5875 21.0788 11.01 22.2225 11.855 24.5075L12.5 26.25L13.145 24.5075C13.99 22.2225 14.4137 21.08 15.2462 20.2463C16.0787 19.4125 17.2225 18.99 19.5075 18.145L21.25 17.5L19.5075 16.855C17.2225 16.01 16.08 15.5875 15.2462 14.7538C14.4125 13.92 13.99 12.7775 13.145 10.4925L12.5 8.75ZM22.5 3.75L22.2237 4.49625C21.8612 5.47625 21.68 5.96625 21.3238 6.3225C20.9663 6.68 20.4763 6.86125 19.4963 7.2225L18.75 7.5L19.4975 7.77625C20.4762 8.13875 20.9663 8.32 21.3225 8.67625C21.68 9.03375 21.8612 9.52375 22.2225 10.5037L22.5 11.25L22.7763 10.5037C23.1388 9.52375 23.32 9.03375 23.6762 8.6775C24.0337 8.32 24.5237 8.13875 25.5037 7.7775L26.25 7.5L25.5025 7.22375C24.5238 6.86125 24.0337 6.68 23.6775 6.32375C23.32 5.96625 23.1388 5.47625 22.7775 4.49625L22.5 3.75Z" stroke="url(#paint0_linear_1_42)" stroke-width="1.5" stroke-linecap="round" stroke-linejoin="round"/>
<defs>
<linearGradient id="paint0_linear_1_42" x1="-20.625" y1="31.875" x2="4.70477" y2="-24.0287" gradientUnits="userSpaceOnUse">
<stop stop-color="#A59FC3"/>
<stop offset="0.215" stop-color="#542B81"/>
<stop offset="0.515" stop-color="#DC379F"/>
<stop offset="0.73" stop-color="#F3A199"/>
<stop offset="0.92" stop-color="#FAF6E8"/>
</linearGradient>
</defs>
</svg>
